<svg width="34" height="34" viewBox="0 0 34 34" fill="none" xmlns="http://www.w3.org/2000/svg">
<path d="M34 17C34 26.3887 26.3887 34 17 34C7.61128 34 0 26.3887 0 17C0 7.61128 7.61128 9.53674e-07 17 9.53674e-07C26.3887 9.53674e-07 34 7.61128 34 17Z" fill="#CCD6DD"/>
<path d="M0 17C0 26.3887 7.61128 34 17 34C17.2786 34 17.5478 33.9726 17.8217 33.9594C23.3854 31.5378 27.3889 24.8691 27.3889 17C27.3889 9.13183 23.3854 2.46217 17.8217 0.0415553C17.5478 0.0283331 17.2786 9.53674e-07 17 9.53674e-07C7.61128 9.53674e-07 0 7.61128 0 17Z" fill="#66757F"/>
<path d="M13.2222 8.02776C13.2222 9.85337 11.7432 11.3333 9.91664 11.3333C8.09008 11.3333 6.61108 9.85337 6.61108 8.02776C6.61108 6.20215 8.09008 4.7222 9.91664 4.7222C11.7432 4.7222 13.2222 6.20215 13.2222 8.02776Z" fill="#5B6876"/>
<path d="M21.7222 15.1111C21.7222 16.676 20.4538 17.9444 18.8889 17.9444C17.3239 17.9444 16.0555 16.676 16.0555 15.1111C16.0555 13.5461 17.3239 12.2777 18.8889 12.2777C20.4538 12.2777 21.7222 13.5461 21.7222 15.1111Z" fill="#5B6876"/>
<path d="M23.6111 25.9723C23.6111 27.7988 22.1321 29.2778 20.3056 29.2778C18.479 29.2778 17 27.7988 17 25.9723C17 24.1457 18.479 22.6667 20.3056 22.6667C22.1321 22.6667 23.6111 24.1457 23.6111 25.9723Z" fill="#5B6876"/>
<path d="M21.7222 5.66671C21.7222 6.70938 20.876 7.5556 19.8333 7.5556C18.7907 7.5556 17.9445 6.70938 17.9445 5.66671C17.9445 4.62405 18.7907 3.77783 19.8333 3.77783C20.876 3.77783 21.7222 4.62405 21.7222 5.66671Z" fill="#5B6876"/>
<path d="M1.88892 17C1.88892 17.5222 2.31203 17.9444 2.83336 17.9444C3.35469 17.9444 3.7778 17.5222 3.7778 17C3.7778 16.4786 3.35469 16.0555 2.83336 16.0555C2.31203 16.0555 1.88892 16.4786 1.88892 17Z" fill="#5B6876"/>
<path d="M27.3889 8.49995C27.3889 9.02223 27.8111 9.4444 28.3334 9.4444C28.8556 9.4444 29.2778 9.02223 29.2778 8.49995C29.2778 7.97862 28.8556 7.55551 28.3334 7.55551C27.8111 7.55551 27.3889 7.97862 27.3889 8.49995Z" fill="#B8C5CD"/>
<path d="M13.2222 29.2777C13.2222 29.8 13.6443 30.2222 14.1666 30.2222C14.6889 30.2222 15.1111 29.8 15.1111 29.2777C15.1111 28.7554 14.6889 28.3333 14.1666 28.3333C13.6443 28.3333 13.2222 28.7554 13.2222 29.2777Z" fill="#5B6876"/>
<path d="M32.1112 17.9444C32.1112 18.9871 31.2649 19.8333 30.2223 19.8333C29.1796 19.8333 28.3334 18.9871 28.3334 17.9444C28.3334 16.9018 29.1796 16.0555 30.2223 16.0555C31.2649 16.0555 32.1112 16.9018 32.1112 17.9444Z" fill="#B8C5CD"/>
<path d="M11.3333 21.7222C11.3333 22.7649 10.4871 23.6111 9.44443 23.6111C8.40176 23.6111 7.55554 22.7649 7.55554 21.7222C7.55554 20.6795 8.40176 19.8333 9.44443 19.8333C10.4871 19.8333 11.3333 20.6795 11.3333 21.7222Z" fill="#5B6876"/>
</svg>
