<svg width="15" height="15" viewBox="0 0 15 15" fill="none" xmlns="http://www.w3.org/2000/svg">
<path d="M11.5861 1.71657L11.5862 1.71663L11.5894 1.71327C11.7242 1.57464 11.9457 1.57147 12.0844 1.70618L13.1601 2.75154C13.2987 2.88625 13.3019 3.10783 13.1672 3.24646L11.9991 4.44856C11.2906 5.17764 11.8072 6.4 12.8238 6.4H14.5C14.6933 6.4 14.85 6.5567 14.85 6.75V8.25C14.85 8.4433 14.6933 8.6 14.5 8.6H13.044C12.0115 8.6 11.502 9.85518 12.2425 10.5747L13.2867 11.5895C13.4254 11.7242 13.4285 11.9458 13.2938 12.0844L12.2485 13.1601C12.1138 13.2988 11.8922 13.3019 11.7536 13.1672L10.5514 11.9991C9.82236 11.2906 8.6 11.8072 8.6 12.8238V14.5C8.6 14.6933 8.4433 14.85 8.25 14.85H6.75C6.5567 14.85 6.4 14.6933 6.4 14.5V13.044C6.4 12.0115 5.14482 11.502 4.42526 12.2425L3.41053 13.2867C3.27582 13.4254 3.05423 13.4285 2.9156 13.2938L1.83986 12.2485C1.70123 12.1138 1.69806 11.8922 1.83277 11.7536L3.00092 10.5514C3.70941 9.82236 3.1928 8.6 2.17619 8.6H0.5C0.306701 8.6 0.15 8.4433 0.15 8.25V6.75C0.15 6.5567 0.3067 6.4 0.5 6.4H1.95603C2.98853 6.4 3.49794 5.14482 2.75747 4.42526L1.71327 3.41056C1.57464 3.27584 1.57147 3.05426 1.70618 2.91563L2.75154 1.83989C2.88625 1.70126 3.10783 1.69809 3.24646 1.8328L4.44856 3.00094C5.17764 3.70942 6.4 3.19282 6.4 2.1762V0.5C6.4 0.306701 6.5567 0.15 6.75 0.15H8.25C8.4433 0.15 8.6 0.3067 8.6 0.5V1.89221C8.6 2.90742 9.81948 3.42464 10.5493 2.71897L11.5861 1.71657Z" fill="#757575" stroke="#757575" stroke-width="0.3"/>
<path d="M10 7.49261C10 8.87332 8.88071 9.99261 7.5 9.99261C6.11929 9.99261 5 8.87332 5 7.49261C5 6.11189 6.11929 4.99261 7.5 4.99261C8.88071 4.99261 10 6.11189 10 7.49261Z" fill="#121721"/>
</svg>
